<svg width="32" height="32" viewBox="0 0 32 32" fill="none" xmlns="http://www.w3.org/2000/svg">
<path fill-rule="evenodd" clip-rule="evenodd" d="M16 0C24.8366 1.10451e-07 32 7.16344 32 16C32 18.6906 31.3338 21.2268 30.1596 23.4531L29.8834 23.9777L29.3694 23.6819C28.6854 23.2883 27.8946 23.0614 27.0491 23.0614C24.4722 23.0614 22.383 25.1497 22.3828 27.7266C22.3828 28.4741 22.5588 29.1792 22.8705 29.8047L23.135 30.3354L22.5949 30.5804C20.5833 31.4916 18.3505 32 16 32C7.16344 32 1.10445e-07 24.8366 0 16C0 7.16344 7.16344 0 16 0ZM13.3069 29.4615C12.6903 28.799 12.1529 28.0615 11.7109 27.264C11.8876 27.5828 12.0796 27.8921 12.2857 28.1908C12.3888 28.3403 12.4954 28.4871 12.6055 28.6311C12.8807 28.9913 13.1776 29.3342 13.4939 29.6579L13.3069 29.4615ZM24.2455 17.8917C20.4288 17.8919 17.3348 20.9864 17.3348 24.803C17.3349 26.5275 17.9677 28.1024 19.0134 29.3136C19.3322 29.2382 19.6468 29.1526 19.9565 29.0552C19.8761 28.6244 19.8337 28.1802 19.8337 27.7266C19.8338 23.7415 23.0644 20.5112 27.0491 20.5112L27.3298 20.5167C27.7956 20.5346 28.2505 20.5964 28.6903 20.6987C28.7997 20.3968 28.8981 20.0897 28.9866 19.7779C27.7483 18.6088 26.0814 17.8917 24.2455 17.8917ZM21.457 12.7254C16.4007 12.7254 12.3014 16.8239 12.3013 21.8806C12.3013 24.8068 13.6747 27.4123 15.8136 29.0887C15.1578 27.802 14.7858 26.346 14.7857 24.803C14.7857 19.5784 19.0207 15.3428 24.2455 15.3426C25.945 15.3426 27.5397 15.7926 28.918 16.5776C27.258 14.2457 24.5357 12.7255 21.457 12.7254ZM18.6607 7.55859C12.3649 7.55877 7.26116 12.6628 7.26116 18.9587C7.26123 22.4304 8.81365 25.5394 11.2628 27.6306C10.3022 25.9326 9.75223 23.971 9.75223 21.8806C9.75232 15.4159 14.9926 10.1763 21.457 10.1763C23.7299 10.1764 25.8511 10.8248 27.6462 11.9459C25.5595 9.27584 22.3109 7.55859 18.6607 7.55859ZM15.865 2.39286C8.32961 2.39302 2.22045 8.50204 2.22042 16.0374C2.22051 20.048 3.95187 23.654 6.70815 26.1507C5.44162 24.0507 4.7121 21.59 4.71205 18.9587C4.71205 11.2549 10.9568 5.00855 18.6607 5.00837C21.5126 5.00837 24.164 5.8659 26.3728 7.33482C23.87 4.31563 20.092 2.39289 15.865 2.39286ZM24.1211 23.3839C23.703 23.6663 23.3281 24.0076 23.0078 24.3956C23.1146 24.2663 23.227 24.1419 23.3454 24.0234C23.4639 23.905 23.5883 23.7925 23.7176 23.6858C23.8471 23.579 23.9816 23.4781 24.1211 23.3839ZM10.4129 20.4626C10.3775 20.7411 10.3526 21.0229 10.3382 21.3075L10.3566 21.024C10.3781 20.7414 10.4098 20.4616 10.452 20.1853L10.4129 20.4626ZM25.4102 17.4107C25.5366 17.4305 25.662 17.4533 25.7863 17.4794C25.9106 17.5054 26.0337 17.5348 26.1557 17.567C26.5216 17.6635 26.8765 17.7869 27.2182 17.9353C27.3891 18.0094 27.5565 18.0901 27.7204 18.1763C27.0099 17.8024 26.2326 17.5395 25.4102 17.4107ZM21.1663 17.9816C21.0559 18.0315 20.9468 18.0839 20.8393 18.139L21.0017 18.0586C21.0562 18.0323 21.111 18.0066 21.1663 17.9816ZM6.93248 16.5458C6.89259 16.7407 6.85786 16.9374 6.82757 17.1356L6.87667 16.8398C6.89425 16.7414 6.91251 16.6433 6.93248 16.5458ZM25.8354 16.0564C25.8873 16.0657 25.939 16.0757 25.9905 16.0859C25.8749 16.0629 25.7584 16.042 25.6412 16.0234L25.8354 16.0564ZM28.9794 12.8856C28.7562 12.5073 28.5126 12.1425 28.2506 11.7924C28.4252 12.0258 28.5918 12.2656 28.7494 12.5117C28.8282 12.6348 28.905 12.7596 28.9794 12.8856ZM9.60882 11.1244C9.10709 11.7037 8.66005 12.3315 8.27567 13L8.42299 12.7511C8.47301 12.6688 8.52397 12.5871 8.57589 12.5061C8.78348 12.1824 9.00584 11.869 9.24275 11.5675C9.36118 11.4168 9.48343 11.2692 9.60882 11.1244ZM28.4475 9.41853C28.4872 9.49385 28.5264 9.56954 28.5647 9.64565C28.6031 9.72167 28.6405 9.79821 28.6775 9.875L28.678 9.87444C28.5669 9.64391 28.4494 9.41705 28.3265 9.19364L28.4475 9.41853ZM24.6869 8.61272C24.9398 8.76035 25.1868 8.91684 25.4275 9.08203C25.5478 9.16465 25.6664 9.24965 25.7835 9.3365L25.784 9.33594C25.4327 9.07542 25.0663 8.83419 24.6869 8.61272ZM22.264 7.53906C22.4061 7.58389 22.5471 7.63143 22.6869 7.68136C22.4073 7.58152 22.123 7.49158 21.8343 7.41239L22.264 7.53906Z" fill="url(#paint0_linear_4378_37184)"/>
<defs>
<linearGradient id="paint0_linear_4378_37184" x1="2.86542e-07" y1="0.538448" x2="32" y2="32" gradientUnits="userSpaceOnUse">
<stop stop-color="#DF1414"/>
<stop offset="1" stop-color="#A759C1"/>
</linearGradient>
</defs>
</svg>
