<svg width="174" height="45" viewBox="0 0 174 45" fill="none" xmlns="http://www.w3.org/2000/svg">
<path fill-rule="evenodd" clip-rule="evenodd" d="M38 1.5C49.598 1.5 59 10.902 59 22.5C59 26.0325 58.1258 29.3602 56.585 32.2816C55.5405 31.6805 54.3312 31.3333 53.0391 31.3333C49.1022 31.3333 45.9099 34.5242 45.9098 38.4613C45.9098 39.6024 46.1788 40.6805 46.6555 41.6369C44.0161 42.8326 41.0862 43.5 38 43.5C26.402 43.5 17 34.098 17 22.5C17 10.902 26.402 1.5 38 1.5ZM45.4276 17.2649C38.1157 17.2649 32.1883 23.192 32.1882 30.5043C32.1882 35.3411 34.7834 39.5703 38.6562 41.8805C38.9745 41.8669 39.2906 41.8459 39.6046 41.8171C38.0501 39.7819 37.125 37.2403 37.125 34.4815C37.125 27.7998 42.5412 22.3832 49.2234 22.3832C52.1782 22.3832 54.8843 23.4438 56.9853 25.2033C57.0289 24.8843 57.063 24.5626 57.0909 24.2388C54.8563 20.0876 50.4727 17.2649 45.4276 17.2649ZM49.2234 24.2972C43.5986 24.2973 39.0391 28.8571 39.0391 34.4815C39.0391 37.1938 40.1018 39.6563 41.8306 41.4815C42.6749 41.3033 43.4983 41.0697 44.2978 40.7855C44.1011 40.0438 43.9957 39.2649 43.9957 38.4613C43.9959 33.4667 48.0449 29.418 53.0391 29.418C53.983 29.418 54.8932 29.5624 55.7486 29.8306C56.0666 29.048 56.3332 28.2395 56.5478 27.4094C54.6957 25.4918 52.0997 24.2972 49.2234 24.2972ZM41.6218 10.2326C32.6229 10.2327 25.3274 17.528 25.3274 26.527C25.3275 33.1098 29.2317 38.7802 34.8505 41.351C32.0286 38.5989 30.2741 34.7574 30.2741 30.5043C30.2742 22.1346 37.0582 15.3509 45.4276 15.3509C49.9201 15.3509 53.9544 17.3067 56.7292 20.4119C54.3108 14.443 48.4581 10.2326 41.6218 10.2326ZM37.8161 3.20153C27.1301 3.20175 18.4666 11.8649 18.4666 22.551C18.4668 30.1784 22.8811 36.7739 29.2935 39.9254C25.679 36.5979 23.4134 31.8274 23.4134 26.527C23.4134 16.4706 31.5654 8.31738 41.6218 8.31729C47.209 8.31729 52.2072 10.835 55.5472 14.7965C52.5579 7.97092 45.7447 3.20153 37.8161 3.20153Z" fill="black"/>
<path fill-rule="evenodd" clip-rule="evenodd" d="M38 1.5C49.598 1.5 59 10.902 59 22.5C59 26.0325 58.1258 29.3602 56.585 32.2816C55.5405 31.6805 54.3312 31.3333 53.0391 31.3333C49.1022 31.3333 45.9099 34.5242 45.9098 38.4613C45.9098 39.6024 46.1788 40.6805 46.6555 41.6369C44.0161 42.8326 41.0862 43.5 38 43.5C26.402 43.5 17 34.098 17 22.5C17 10.902 26.402 1.5 38 1.5ZM45.4276 17.2649C38.1157 17.2649 32.1883 23.192 32.1882 30.5043C32.1882 35.3411 34.7834 39.5703 38.6562 41.8805C38.9745 41.8669 39.2906 41.8459 39.6046 41.8171C38.0501 39.7819 37.125 37.2403 37.125 34.4815C37.125 27.7998 42.5412 22.3832 49.2234 22.3832C52.1782 22.3832 54.8843 23.4438 56.9853 25.2033C57.0289 24.8843 57.063 24.5626 57.0909 24.2388C54.8563 20.0876 50.4727 17.2649 45.4276 17.2649ZM49.2234 24.2972C43.5986 24.2973 39.0391 28.8571 39.0391 34.4815C39.0391 37.1938 40.1018 39.6563 41.8306 41.4815C42.6749 41.3033 43.4983 41.0697 44.2978 40.7855C44.1011 40.0438 43.9957 39.2649 43.9957 38.4613C43.9959 33.4667 48.0449 29.418 53.0391 29.418C53.983 29.418 54.8932 29.5624 55.7486 29.8306C56.0666 29.048 56.3332 28.2395 56.5478 27.4094C54.6957 25.4918 52.0997 24.2972 49.2234 24.2972ZM41.6218 10.2326C32.6229 10.2327 25.3274 17.528 25.3274 26.527C25.3275 33.1098 29.2317 38.7802 34.8505 41.351C32.0286 38.5989 30.2741 34.7574 30.2741 30.5043C30.2742 22.1346 37.0582 15.3509 45.4276 15.3509C49.9201 15.3509 53.9544 17.3067 56.7292 20.4119C54.3108 14.443 48.4581 10.2326 41.6218 10.2326ZM37.8161 3.20153C27.1301 3.20175 18.4666 11.8649 18.4666 22.551C18.4668 30.1784 22.8811 36.7739 29.2935 39.9254C25.679 36.5979 23.4134 31.8274 23.4134 26.527C23.4134 16.4706 31.5654 8.31738 41.6218 8.31729C47.209 8.31729 52.2072 10.835 55.5472 14.7965C52.5579 7.97092 45.7447 3.20153 37.8161 3.20153Z" fill="url(#paint0_linear_4297_36654)"/>
<path d="M72.873 9.47949V8.38574H75.6621C76.3685 8.38574 76.9154 8.20345 77.3027 7.83887C77.6901 7.46973 77.8838 6.96159 77.8838 6.31445V6.30078C77.8838 5.64909 77.6901 5.14095 77.3027 4.77637C76.9154 4.41178 76.3685 4.22949 75.6621 4.22949H72.873V3.13574H75.9766C76.5964 3.13574 77.1432 3.2679 77.6172 3.53223C78.0911 3.79655 78.4626 4.16569 78.7314 4.63965C79.0049 5.11361 79.1416 5.66276 79.1416 6.28711V6.30078C79.1416 6.92513 79.0049 7.47656 78.7314 7.95508C78.4626 8.43359 78.0911 8.80729 77.6172 9.07617C77.1432 9.34505 76.5964 9.47949 75.9766 9.47949H72.873ZM72.2578 13V3.13574H73.4883V13H72.2578ZM83.0378 13.1299C82.573 13.1299 82.1537 13.041 81.78 12.8633C81.4109 12.6855 81.1169 12.4326 80.8982 12.1045C80.684 11.7764 80.5769 11.389 80.5769 10.9424V10.9287C80.5769 10.4912 80.6817 10.1175 80.8913 9.80762C81.101 9.49316 81.4063 9.24707 81.8073 9.06934C82.2084 8.8916 82.6937 8.78678 83.2634 8.75488L85.9704 8.59082V9.54102L83.407 9.70508C82.8464 9.73698 82.4362 9.85319 82.1765 10.0537C81.9213 10.2542 81.7937 10.5368 81.7937 10.9014V10.915C81.7937 11.2887 81.9349 11.5804 82.2175 11.79C82.5001 11.9951 82.8555 12.0977 83.2839 12.0977C83.6895 12.0977 84.0495 12.0179 84.364 11.8584C84.6784 11.6943 84.9245 11.4733 85.1023 11.1953C85.2846 10.9173 85.3757 10.6029 85.3757 10.252V7.95508C85.3757 7.49935 85.2367 7.15299 84.9587 6.91602C84.6853 6.67448 84.2728 6.55371 83.7214 6.55371C83.2793 6.55371 82.917 6.63346 82.6345 6.79297C82.3519 6.94792 82.1628 7.16895 82.0671 7.45605L82.0603 7.47656H80.8708L80.8777 7.43555C80.9415 7.04818 81.101 6.71094 81.3562 6.42383C81.6159 6.13216 81.9509 5.90658 82.3611 5.74707C82.7712 5.58301 83.2383 5.50098 83.7624 5.50098C84.364 5.50098 84.8721 5.59896 85.2868 5.79492C85.7061 5.99089 86.0228 6.27344 86.237 6.64258C86.4558 7.00716 86.5652 7.44466 86.5652 7.95508V13H85.3757V11.9131H85.2663C85.1114 12.1729 84.9223 12.3939 84.6989 12.5762C84.4802 12.7585 84.2318 12.8975 83.9538 12.9932C83.6758 13.0843 83.3705 13.1299 83.0378 13.1299ZM89.0873 13V2.70508H90.2768V13H89.0873ZM94.8634 13.1299C94.3986 13.1299 93.9793 13.041 93.6056 12.8633C93.2365 12.6855 92.9425 12.4326 92.7238 12.1045C92.5096 11.7764 92.4025 11.389 92.4025 10.9424V10.9287C92.4025 10.4912 92.5073 10.1175 92.717 9.80762C92.9266 9.49316 93.2319 9.24707 93.633 9.06934C94.034 8.8916 94.5194 8.78678 95.089 8.75488L97.7961 8.59082V9.54102L95.2326 9.70508C94.672 9.73698 94.2619 9.85319 94.0021 10.0537C93.7469 10.2542 93.6193 10.5368 93.6193 10.9014V10.915C93.6193 11.2887 93.7606 11.5804 94.0431 11.79C94.3257 11.9951 94.6811 12.0977 95.1095 12.0977C95.5151 12.0977 95.8752 12.0179 96.1896 11.8584C96.5041 11.6943 96.7502 11.4733 96.9279 11.1953C97.1102 10.9173 97.2013 10.6029 97.2013 10.252V7.95508C97.2013 7.49935 97.0623 7.15299 96.7843 6.91602C96.5109 6.67448 96.0985 6.55371 95.547 6.55371C95.105 6.55371 94.7427 6.63346 94.4601 6.79297C94.1776 6.94792 93.9884 7.16895 93.8927 7.45605L93.8859 7.47656H92.6964L92.7033 7.43555C92.7671 7.04818 92.9266 6.71094 93.1818 6.42383C93.4416 6.13216 93.7765 5.90658 94.1867 5.74707C94.5968 5.58301 95.064 5.50098 95.588 5.50098C96.1896 5.50098 96.6977 5.59896 97.1125 5.79492C97.5317 5.99089 97.8485 6.27344 98.0627 6.64258C98.2814 7.00716 98.3908 7.44466 98.3908 7.95508V13H97.2013V11.9131H97.092C96.937 12.1729 96.7479 12.3939 96.5246 12.5762C96.3058 12.7585 96.0574 12.8975 95.7795 12.9932C95.5015 13.0843 95.1961 13.1299 94.8634 13.1299ZM103.463 13.0547C102.706 13.0547 102.157 12.902 101.815 12.5967C101.478 12.2913 101.309 11.7878 101.309 11.0859V6.61523H100.147V5.63086H101.309V3.72363H102.54V5.63086H104.153V6.61523H102.54V10.7852C102.54 11.2181 102.622 11.5303 102.786 11.7217C102.95 11.9085 103.224 12.002 103.606 12.002C103.711 12.002 103.8 11.9997 103.873 11.9951C103.95 11.9906 104.044 11.9837 104.153 11.9746V12.9863C104.039 13.0046 103.925 13.0205 103.811 13.0342C103.697 13.0479 103.581 13.0547 103.463 13.0547ZM106.238 13V5.63086H107.427V13H106.238ZM106.839 4.20898C106.616 4.20898 106.422 4.12923 106.258 3.96973C106.099 3.80566 106.019 3.61198 106.019 3.38867C106.019 3.16081 106.099 2.96712 106.258 2.80762C106.422 2.64811 106.616 2.56836 106.839 2.56836C107.067 2.56836 107.261 2.64811 107.421 2.80762C107.58 2.96712 107.66 3.16081 107.66 3.38867C107.66 3.61198 107.58 3.80566 107.421 3.96973C107.261 4.12923 107.067 4.20898 106.839 4.20898ZM109.95 13V5.63086H111.139V6.73828H111.248C111.435 6.34635 111.704 6.04329 112.055 5.8291C112.406 5.61035 112.853 5.50098 113.395 5.50098C114.224 5.50098 114.86 5.73796 115.302 6.21191C115.749 6.68132 115.972 7.35352 115.972 8.22852V13H114.783V8.51562C114.783 7.85026 114.641 7.35807 114.359 7.03906C114.081 6.71549 113.648 6.55371 113.06 6.55371C112.668 6.55371 112.328 6.63802 112.041 6.80664C111.754 6.97526 111.531 7.21452 111.371 7.52441C111.216 7.83431 111.139 8.20573 111.139 8.63867V13H109.95ZM121.413 13.1299C120.711 13.1299 120.107 12.9749 119.602 12.665C119.1 12.3551 118.713 11.9176 118.439 11.3525C118.171 10.7829 118.036 10.113 118.036 9.34277V9.33594C118.036 8.57487 118.171 7.90723 118.439 7.33301C118.713 6.75879 119.098 6.3099 119.595 5.98633C120.092 5.66276 120.673 5.50098 121.338 5.50098C122.008 5.50098 122.582 5.65592 123.061 5.96582C123.544 6.27572 123.913 6.70866 124.168 7.26465C124.428 7.81608 124.558 8.45866 124.558 9.19238V9.65723H118.651V8.70703H123.949L123.361 9.5752V9.10352C123.361 8.52474 123.275 8.0485 123.102 7.6748C122.928 7.30111 122.689 7.02311 122.384 6.84082C122.078 6.65397 121.728 6.56055 121.331 6.56055C120.935 6.56055 120.579 6.65853 120.265 6.85449C119.955 7.0459 119.709 7.33073 119.526 7.70898C119.344 8.08724 119.253 8.55208 119.253 9.10352V9.5752C119.253 10.0993 119.342 10.5482 119.52 10.9219C119.697 11.291 119.95 11.5758 120.278 11.7764C120.606 11.9723 120.994 12.0703 121.44 12.0703C121.773 12.0703 122.063 12.0247 122.309 11.9336C122.555 11.8424 122.758 11.7262 122.917 11.585C123.077 11.4437 123.188 11.3001 123.252 11.1543L123.279 11.0928H124.469L124.455 11.1475C124.391 11.3981 124.277 11.6419 124.113 11.8789C123.954 12.1113 123.746 12.3232 123.491 12.5146C123.236 12.7015 122.933 12.8519 122.582 12.9658C122.236 13.0752 121.846 13.1299 121.413 13.1299Z" fill="#111111"/>
<path d="M78.632 20.288C81.752 20.288 84.56 21.68 85.232 25.04H82.856C82.256 23.024 80.288 22.352 78.536 22.352C77.192 22.352 74.84 22.952 74.84 24.896C74.84 26.432 76.064 27.2 77.672 27.56L79.688 28.016C82.352 28.592 85.544 29.6 85.544 33.104C85.544 36.512 82.376 38.312 78.92 38.312C74.816 38.312 72.224 36.08 71.768 32.6H74.168C74.624 35 76.304 36.248 78.968 36.248C81.536 36.248 83.024 35.024 83.024 33.32C83.024 31.496 81.464 30.728 79.28 30.248L77.12 29.792C74.744 29.264 72.344 27.944 72.344 25.04C72.344 21.728 75.824 20.288 78.632 20.288ZM90.287 25.088V27.128C91.079 25.76 92.447 24.872 94.511 24.872C97.463 24.872 100.031 27.344 100.031 31.592C100.031 35.864 97.463 38.312 94.511 38.312C92.447 38.312 91.079 37.424 90.287 36.056V42.2H88.103V25.088H90.287ZM93.959 36.44C96.191 36.44 97.655 34.664 97.655 31.592C97.655 28.52 96.191 26.744 93.959 26.744C92.015 26.744 90.191 28.184 90.191 31.592C90.191 35 92.015 36.44 93.959 36.44ZM104.239 32.264C104.335 35.048 106.303 36.392 108.223 36.392C110.143 36.392 111.199 35.528 111.751 34.256H114.007C113.407 36.488 111.367 38.312 108.223 38.312C104.143 38.312 101.887 35.384 101.887 31.568C101.887 27.488 104.623 24.872 108.151 24.872C112.087 24.872 114.463 28.184 114.175 32.264H104.239ZM104.263 30.392H111.871C111.823 28.568 110.455 26.744 108.151 26.744C106.207 26.744 104.455 27.8 104.263 30.392ZM118.301 32.264C118.397 35.048 120.365 36.392 122.285 36.392C124.205 36.392 125.261 35.528 125.813 34.256H128.069C127.469 36.488 125.429 38.312 122.285 38.312C118.205 38.312 115.949 35.384 115.949 31.568C115.949 27.488 118.685 24.872 122.213 24.872C126.149 24.872 128.525 28.184 128.237 32.264H118.301ZM118.325 30.392H125.933C125.885 28.568 124.517 26.744 122.213 26.744C120.269 26.744 118.517 27.8 118.325 30.392ZM141.652 29.408H139.444C139.132 27.872 137.788 26.792 136.108 26.792C134.164 26.792 132.388 28.304 132.388 31.544C132.388 34.832 134.188 36.392 136.108 36.392C137.932 36.392 139.228 35.168 139.54 33.8H141.796C141.364 36.224 139.036 38.312 136.036 38.312C132.34 38.312 130.012 35.504 130.012 31.568C130.012 27.728 132.436 24.872 136.252 24.872C139.372 24.872 141.364 27.224 141.652 29.408ZM146.443 27.032C147.187 25.808 148.435 24.872 150.619 24.872C153.739 24.872 154.867 26.888 154.867 29.84V38H152.683V30.488C152.683 28.496 152.347 26.768 149.851 26.768C147.739 26.768 146.443 28.232 146.443 30.992V38H144.259V20.6H146.443V27.032Z" fill="#111111"/>
<defs>
<linearGradient id="paint0_linear_4297_36654" x1="17" y1="2.20671" x2="59" y2="43.5" gradientUnits="userSpaceOnUse">
<stop stop-color="#DF1414"/>
<stop offset="1" stop-color="#A759C1"/>
</linearGradient>
</defs>
</svg>
